<svg width="212" height="183" viewBox="0 0 212 183" fill="none" xmlns="http://www.w3.org/2000/svg">
<g style="mix-blend-mode:multiply">
<path fill-rule="evenodd" clip-rule="evenodd" d="M153.396 2.49565C171.482 4.99566 214.512 15.4887 210.896 38.9956C206.896 64.9956 146.309 82.0807 146.309 82.0807C146.309 82.0807 172.458 91.1466 178.396 100.996C183.135 108.857 183.481 113.496 182.698 121.966C181.108 139.152 174.516 154.48 160.396 163.996C138.593 178.688 125.593 183.025 78.8956 181.996C59.3741 181.565 24.3964 168.5 13.6977 156.081C-9.50298 129.149 3.1977 106.081 19.1978 73.466C19.9544 71.9239 20.6951 70.4055 21.4242 68.9108L21.4268 68.9055L21.4278 68.9035C34.0481 43.0329 43.2001 24.2719 70.6979 12.966C96.7189 2.26718 125.526 -1.35655 153.396 2.49565ZM109.223 37.4956L103.396 52.9956C103.396 52.9956 132.396 50.9956 136.223 48.9956C140.051 46.9956 140.223 44.9956 136.223 41.9956C130.223 37.4956 109.223 37.4956 109.223 37.4956ZM85.8956 130.996L93.3956 113.496C93.3956 113.496 124.896 117.996 127.896 119.996C130.896 121.996 128.896 126.096 125.396 127.496C120.396 129.496 85.8956 130.996 85.8956 130.996Z" fill="#B5FFC5"/>
<path fill-rule="evenodd" clip-rule="evenodd" d="M153.396 2.49565C171.482 4.99566 214.512 15.4887 210.896 38.9956C206.896 64.9956 146.309 82.0807 146.309 82.0807C146.309 82.0807 172.458 91.1466 178.396 100.996C183.135 108.857 183.481 113.496 182.698 121.966C181.108 139.152 174.516 154.48 160.396 163.996C138.593 178.688 125.593 183.025 78.8956 181.996C59.3741 181.565 24.3964 168.5 13.6977 156.081C-9.50298 129.149 3.1977 106.081 19.1978 73.466C19.9544 71.9239 20.6951 70.4055 21.4242 68.9108L21.4268 68.9055L21.4278 68.9035C34.0481 43.0329 43.2001 24.2719 70.6979 12.966C96.7189 2.26718 125.526 -1.35655 153.396 2.49565ZM109.223 37.4956L103.396 52.9956C103.396 52.9956 132.396 50.9956 136.223 48.9956C140.051 46.9956 140.223 44.9956 136.223 41.9956C130.223 37.4956 109.223 37.4956 109.223 37.4956ZM85.8956 130.996L93.3956 113.496C93.3956 113.496 124.896 117.996 127.896 119.996C130.896 121.996 128.896 126.096 125.396 127.496C120.396 129.496 85.8956 130.996 85.8956 130.996Z" stroke="black"/>
</g>
</svg>
