<svg width="191" height="188" viewBox="0 0 191 188" fill="none" xmlns="http://www.w3.org/2000/svg">
<path fill-rule="evenodd" clip-rule="evenodd" d="M32.9966 23C11.4992 65.7228 -7.00658 147.927 4.49999 164.715C16.9985 182.95 35.7993 185.717 56.4937 186.597C80.9908 187.639 98.2942 184.494 122.03 177.219C156.026 166.799 180.584 139.303 187.978 99.5884C194.574 64.1598 184.478 49.3927 162.436 31.8574C127.779 4.28589 53.2454 -17.2415 32.9966 23ZM113.987 105.32C90.4895 111.051 72.471 111.792 72.471 111.792C72.471 111.792 77.4271 104.982 80.471 91.7916C83.471 78.7916 80.471 68.2916 80.471 68.2916C80.471 68.2916 100.812 76.2479 116.986 87.0842C123.985 91.7733 128.529 101.772 113.987 105.32Z" fill="#FF7BCA" stroke="black"/>
</svg>
