<svg width="228" height="183" viewBox="0 0 228 183" fill="none" xmlns="http://www.w3.org/2000/svg">
<g style="mix-blend-mode:multiply">
<path d="M57.5633 22.4741C89.0632 0.339127 150.563 -5.0259 194.063 7.97412C208.095 12.1674 233.865 24.6767 224.66 36.0663C209.656 54.6289 128.225 51.5987 92.2923 50.5544C91.5 59.5 87.0632 70.1467 79.5632 77.1467C90.5 71.166 178.545 72.0745 194.5 83.3296C207.5 92.5 194.5 104 189 106.83C156.663 123.467 113.606 118.677 68.5 109.5C66 120.5 65.5632 124.5 58.0632 131.321C82.0145 130.137 140.021 134.301 160.563 149.474C167.159 154.346 168.338 159.665 162.563 165.231C143.445 183.657 34.7939 190.974 8.93557 165.231C-16.9368 139.474 26.0633 44.6092 57.5633 22.4741Z" fill="#F178B6"/>
<path d="M58.0632 131.321C82.0145 130.137 140.021 134.301 160.563 149.474C167.159 154.346 168.338 159.665 162.563 165.231C143.445 183.657 34.7939 190.974 8.93557 165.231C-16.9368 139.474 26.0633 44.6092 57.5633 22.4741C89.0632 0.339127 150.563 -5.0259 194.063 7.97412C208.095 12.1674 233.865 24.6767 224.66 36.0663C209.656 54.6289 128.225 51.5987 92.2923 50.5544M58.0632 131.321C50 137 50.5 135 50.5 135M58.0632 131.321C65.5632 124.5 66 120.5 68.5 109.5M92.2923 50.5544C92.9171 43.5 91 43 91 43M92.2923 50.5544C91.5 59.5 87.0632 70.1467 79.5632 77.1467M79.5632 77.1467C90.5 71.166 178.545 72.0745 194.5 83.3296C207.5 92.5 194.5 104 189 106.83C156.663 123.467 113.606 118.677 68.5 109.5M79.5632 77.1467C76.5 80.0057 73.5 80.5 73.5 80.5M68.5 109.5C69.5 104.5 68.5 102 68.5 102" stroke="black"/>
</g>
</svg>
