<svg width="193" height="190" viewBox="0 0 193 190" fill="none" xmlns="http://www.w3.org/2000/svg">
<g style="mix-blend-mode:multiply">
<path d="M25.0106 178.647C1.51062 154.647 -2.9894 94.1467 4.0106 37.6467C5.705 23.9704 10.8545 14.7797 16.5106 8.14676C26.5228 -3.59463 40.2984 -0.365336 45.5428 14.1468C58.0106 48.6468 64.5106 131.147 64.5106 131.147C64.5106 131.147 124.011 26.4141 154.011 16.6467C175.511 9.64666 195.197 13.9777 192.011 29.1467C182.418 74.8128 138.73 177.845 71.0107 188.647C58.4637 190.648 33.8997 187.725 25.0106 178.647Z" fill="#F6FF8C"/>
<path d="M55.5106 149.647C58.6348 142.812 61.3864 137.981 64.5106 131.147M64.5106 131.147C64.5106 131.147 124.011 26.4141 154.011 16.6467C175.511 9.64666 195.197 13.9777 192.011 29.1467C182.418 74.8128 138.73 177.845 71.0107 188.647C58.4637 190.648 33.8997 187.725 25.0106 178.647C1.51062 154.647 -2.9894 94.1467 4.0106 37.6467C5.705 23.9704 10.8545 14.7797 16.5106 8.14676C26.5228 -3.59463 40.2984 -0.365336 45.5428 14.1468C58.0106 48.6468 64.5106 131.147 64.5106 131.147Z" stroke="black"/>
</g>
</svg>
