<svg width="228" height="180" viewBox="0 0 228 180" fill="none" xmlns="http://www.w3.org/2000/svg">
<g style="mix-blend-mode:multiply">
<path d="M9.23908 94.7699C18.983 61.995 53.2391 -3.73014 75.2391 1.26988C97.2391 6.26989 84.5928 60.2699 84.5928 60.2699C84.5928 60.2699 109.92 9.26985 131.42 12.2699C152.92 15.2699 151.239 80.2699 151.239 80.2699C151.239 80.2699 181.239 17.77 216.739 17.77C252.239 17.77 185.949 167.816 121.239 176.27C84.1871 181.111 83.8174 140.27 83.8174 140.27C81.4613 143.743 78.627 147.464 75.2391 151.27C60.7244 167.577 44.9494 185.656 25.2391 176.27C-6.26093 161.27 -1.76093 131.77 9.23908 94.7699Z" fill="#FF6969"/>
<path d="M103.739 104.77C103.739 104.77 91.7129 128.631 83.8174 140.27M83.8174 140.27C81.4613 143.743 78.627 147.464 75.2391 151.27C60.7244 167.577 44.9494 185.656 25.2391 176.27C-6.26093 161.27 -1.76093 131.77 9.23908 94.7699C18.983 61.995 53.2391 -3.73014 75.2391 1.26988C97.2391 6.26989 84.5928 60.2699 84.5928 60.2699M83.8174 140.27C83.8174 140.27 84.1871 181.111 121.239 176.27C185.949 167.816 252.239 17.77 216.739 17.77C181.239 17.77 151.239 80.2699 151.239 80.2699M151.239 100.77V80.2699M151.239 80.2699C151.239 80.2699 152.92 15.2699 131.42 12.2699C109.92 9.26985 84.5928 60.2699 84.5928 60.2699M75.2391 94.7699L84.5928 60.2699" stroke="black"/>
</g>
</svg>
